<svg xmlns="http://www.w3.org/2000/svg" width="96" height="40" viewBox="0 0 96 40">
  <defs>
    <style>
      .cls-1 {
        fill: #ccc;
        fill-rule: evenodd;
      }
    </style>
  </defs>
  <path id="Keith_C" data-name="Keith C" class="cls-1" d="M16.824,32.806a2.829,2.829,0,0,0-.688.753q-0.77.548-1.243,0.855a2.592,2.592,0,0,1-.575.322,2.075,2.075,0,0,1-1.513-.639,12.791,12.791,0,0,1-2.026-2.3q-0.694-1.059-1.395-2.1t-1.36-2.143q-0.347-.529-0.79-1.149a1.056,1.056,0,0,1,.159-0.614,6.45,6.45,0,0,1,.613-0.908q1.017-1.268,2.241-3.1T12.9,17.534q0.646-1.11,1.093-2.025a11.375,11.375,0,0,0,.671-1.652,4.486,4.486,0,0,1,.271-0.413q0.138-.186.263-0.329a2.678,2.678,0,0,0,.547-1.292,5.781,5.781,0,0,0-.017-1.749,2.582,2.582,0,0,0-.261-0.843,1.815,1.815,0,0,0-.543-0.615q-0.295.25-.612,0.482a4.752,4.752,0,0,1-.579,0,1.288,1.288,0,0,0-.68.44,1.53,1.53,0,0,1-.576.445,3.715,3.715,0,0,0-1.4.752,1.065,1.065,0,0,0-.357.95,1.1,1.1,0,0,0,.408.594,1.1,1.1,0,0,1,.405.573,5.571,5.571,0,0,1-.736,2.483A53.537,53.537,0,0,1,8.2,20.1Q6.47,23.011,5.342,24.648a6.909,6.909,0,0,1-1.7,1.95,1.148,1.148,0,0,1-.289-0.559,2.408,2.408,0,0,1-.01-0.5q0.019-.293.05-0.65a5.768,5.768,0,0,0,.076-0.685q0.01-.281.025-0.47,0.152-2.364.312-4.108t0.321-2.907q0.005-.1.045-0.4t0.116-.763A3.914,3.914,0,0,0,4.352,14.9a3.189,3.189,0,0,0-.023-0.442,2.893,2.893,0,0,0-.572-1.077,1.053,1.053,0,0,0-.776-0.633q-0.217.218-.369,0.385T2.35,13.4A3.813,3.813,0,0,0,.972,14.459,3.422,3.422,0,0,0,.3,15.977q0,0.125.027,1.033t0.084,2.558q0.078,2.807.111,4.657t0.006,2.807L1,28.144a1.611,1.611,0,0,1-.071.508Q0.86,28.87.82,29.02q-0.031.212-.034,1.186t0.055,2.645q0.031,1.633.065,2.5t0.057,1.028a3.482,3.482,0,0,0,.136.509,3.492,3.492,0,0,1,.136.509,3.4,3.4,0,0,1,0,.7,3.346,3.346,0,0,0-.007.664,2.121,2.121,0,0,0,.258.843,0.4,0.4,0,0,0,.4.222,5.413,5.413,0,0,0,.55-0.2,3.166,3.166,0,0,0,.687.024,0.667,0.667,0,0,0,.543-0.328,1.37,1.37,0,0,0,.06-0.8,15.987,15.987,0,0,1-.105-2,15.978,15.978,0,0,0-.105-1.995,1.85,1.85,0,0,0-.1-0.327,1.818,1.818,0,0,1-.1-0.327,2.873,2.873,0,0,1,.031-0.709,2.885,2.885,0,0,0,.034-0.689q-0.025-1.3.04-2.068a3.311,3.311,0,0,1,.177-0.989q0.643,0.714,1.243,1.414t1.136,1.389Q7.16,33.69,7.924,34.521a13.225,13.225,0,0,0,1.023,1.042q0.538,0.419,1.116.832a3.053,3.053,0,0,1,.219.289q0.093,0.142.172,0.255a3.4,3.4,0,0,0,1.322,1.175,2.716,2.716,0,0,0,1.554.208,3.02,3.02,0,0,0,1.059-.486,11.975,11.975,0,0,0,1.621-1.315q0.9-.815,1.509-1.443a9.644,9.644,0,0,0,.957-1.114,20.356,20.356,0,0,0-1.1-1.745A1.679,1.679,0,0,1,16.824,32.806Zm1.287,0.444a5.076,5.076,0,0,1,.394.709,2.644,2.644,0,0,1,.38-0.522,0.639,0.639,0,0,1,.343-0.206,0.465,0.465,0,0,1,.4.16,3.061,3.061,0,0,1,.441.609q0.3,0.515.564,0.881a2.415,2.415,0,0,0,.493.539,2.5,2.5,0,0,0,1.059.508,3.707,3.707,0,0,0,1.362.029,4.692,4.692,0,0,0,.971-0.235,2.354,2.354,0,0,0,.7-0.4,3.414,3.414,0,0,0,1.651-.832,12.4,12.4,0,0,0,1.85-2.022q-0.172-.327-0.443-0.764t-0.621-.987a2.441,2.441,0,0,1-.4.359q-0.207.144-.3,0.22a6.111,6.111,0,0,1-1.085.656,6.564,6.564,0,0,1-1.4.474,7.124,7.124,0,0,1-.875-0.1,1.971,1.971,0,0,1-.553-0.168,1.069,1.069,0,0,1-.507-0.423,1.769,1.769,0,0,1-.262-0.729,1.057,1.057,0,0,1,.035-0.471,1.277,1.277,0,0,1,.192-0.391,30.135,30.135,0,0,0,2.252-3.314,7.217,7.217,0,0,0,.949-2.439l0.088-.676q0.071-.508.109-0.741t0.056-.112q-0.153-.475-0.273-0.872a6.608,6.608,0,0,0-.369-0.754,1.789,1.789,0,0,0-.345-0.447,1.11,1.11,0,0,0-.568-0.269,2.775,2.775,0,0,0-.837.019,3.451,3.451,0,0,0-.661.159,4.672,4.672,0,0,0-.527.222,6.215,6.215,0,0,1-.474.442,4.516,4.516,0,0,0-.437.416q-0.384.637-.769,1.263T19.938,24.2a16.142,16.142,0,0,0-.6,1.622q-0.217.716-.334,1.189-0.1.47-.173,0.875a6.067,6.067,0,0,0-.095.7,7.944,7.944,0,0,1,.036.813q0,0.4,0,.819a7.691,7.691,0,0,0-.842,1.045,5.317,5.317,0,0,0-.5.954Q17.843,32.833,18.111,33.25Zm5.068-8.5a0.549,0.549,0,0,1,.114.284,1.446,1.446,0,0,1-.039.586,2.253,2.253,0,0,1-.282.622l-0.349.517q-0.179.265-.372,0.5-0.092.221-.2,0.475a0.424,0.424,0,0,1-.331.287A0.316,0.316,0,0,1,21.5,28a0.241,0.241,0,0,1-.076-0.165,3.873,3.873,0,0,1,.5-1.824,2.145,2.145,0,0,1,1.027-1.342A0.239,0.239,0,0,1,23.18,24.748Zm4.3,6.159a1.132,1.132,0,0,1,.134.208q0.234,0.463.439,0.806T28.4,32.513a12.354,12.354,0,0,1,1.148-1.5,1.629,1.629,0,0,1,.809-0.564,0.493,0.493,0,0,1,.338.189,4.821,4.821,0,0,1,.529.638q0.247,0.275.442,0.474a2.929,2.929,0,0,1,.3.35,5.793,5.793,0,0,0,1.564,2.2,4.428,4.428,0,0,0,2.457.076,2.282,2.282,0,0,0,.85-0.425,10.513,10.513,0,0,0,1.288-1.111q0.67-.658,1.148-1.152a9.3,9.3,0,0,0,.754-0.867l-1.084-1.748-0.581.634q-0.295.323-.561,0.631a2.7,2.7,0,0,1-.725.572,2.33,2.33,0,0,1-.731.242,1.25,1.25,0,0,1-.521-0.017,0.619,0.619,0,0,1-.347-0.25,3.677,3.677,0,0,1-.442-0.9q-0.323-.792-0.524-1.177-0.176-.637-0.391-1.259t-0.449-1.23a1.757,1.757,0,0,0-.8-0.97,2,2,0,0,0-1.249-.18,1.117,1.117,0,0,0-.507.219,1.3,1.3,0,0,0-.4.535,12.608,12.608,0,0,1-1.621,2.237,13.653,13.653,0,0,0-1.642,2.24l-0.031.212-0.1.16A0.566,0.566,0,0,1,27.481,30.907ZM32.72,13.716a1.759,1.759,0,0,0-.494.311q-0.387.616-.669,1.093a2.3,2.3,0,0,0-1.165,1.175,2.744,2.744,0,0,0-.517,1.64,3.236,3.236,0,0,0,.312,1.073,0.982,0.982,0,0,0,.5.487q0.3-.045.623-0.06t0.67-.025a0.974,0.974,0,0,0,.42-0.175,4.554,4.554,0,0,0,.715-0.571,3.467,3.467,0,0,0,.673-0.71,2.555,2.555,0,0,0,.383-0.854q0.051-.215.136-0.7t0.18-1.249q0.025-.4.064-0.983a0.747,0.747,0,0,0-.319-0.554,1.128,1.128,0,0,0-.77-0.095A2.81,2.81,0,0,0,32.72,13.716Zm6.635,15.455a1.129,1.129,0,0,1,.134.208q0.234,0.463.441,0.816t0.344,0.582q0.158-.334.291-0.561a3.222,3.222,0,0,0,.179-0.337q0.927-1.171,1.817-2.317a14.4,14.4,0,0,0,.992-1.3,7.436,7.436,0,0,0,.642-1.14l0.185-.151a0.234,0.234,0,0,1,.189.159q-0.164.584-.316,1.1-0.027.812-.033,1.621-0.013.479-.024,0.832a3.376,3.376,0,0,0,.019.557,2.272,2.272,0,0,1-.081.3,6.193,6.193,0,0,0-.061,1.429q0.045,0.875.217,2.051a2.5,2.5,0,0,0,.671,1.539,1.642,1.642,0,0,0,1.406.333,1.988,1.988,0,0,0,.838-0.361,3.472,3.472,0,0,0,.843-0.9q0.309-.439.6-0.9t0.6-.917q0.312-.419.576-0.737t0.435-.571q0.457-.419.778-0.777a5.869,5.869,0,0,0,.491-0.611l-1.064-1.751q-1.191,1.355-1.866,2.055a3.539,3.539,0,0,1-.8.718,0.338,0.338,0,0,1-.328-0.118,0.941,0.941,0,0,1-.173-0.472,10.985,10.985,0,0,1-.035-1.446q0.018-1.08.1-2.833,0.217-2.208.416-3.833t0.4-2.69q0.046-.4.063-0.7t0.029-.512l1.334-.485a0.705,0.705,0,0,0,.255-0.732,12.146,12.146,0,0,0-.163-1.893,1.957,1.957,0,0,0-.12-0.469,0.456,0.456,0,0,0-.21-0.249,1.565,1.565,0,0,1-.241-0.182,1.065,1.065,0,0,1-.135-0.157,5.485,5.485,0,0,1,.148-1.193,3.879,3.879,0,0,0,.1-1.268,1.343,1.343,0,0,0-.394-0.854,0.95,0.95,0,0,0-.8-0.195q-0.915.134-1.439,2.158t-1.223,2.21l-0.7-.1-0.542.193q-0.247.088-.5,0.187a3.493,3.493,0,0,0-.6-0.015,9.283,9.283,0,0,0-.94.1q-0.256.1-.551,0.2a8.737,8.737,0,0,0-.9,0,10.714,10.714,0,0,0-1.073.105,0.917,0.917,0,0,0-.742.813,5.678,5.678,0,0,0,.017,2.029,0.433,0.433,0,0,0,.178.3,0.948,0.948,0,0,0,.407.158q0.174,0.058.357,0.1t0.4,0.118q0.162-.024.541-0.058t0.541-.058l2.536-.371a1.823,1.823,0,0,0,.406-0.132A1.838,1.838,0,0,1,44.6,17.67a0.283,0.283,0,0,1,.212.031,0.251,0.251,0,0,1,.088.174q-0.163.583-.313,0.978a5.984,5.984,0,0,1-.279.642,39.791,39.791,0,0,1-2.085,4.667,23.192,23.192,0,0,1-2.343,3.607q-0.216.363-.374,0.635t-0.255.452l-0.057.174A0.565,0.565,0,0,1,39.355,29.171ZM50.767,28.5a7.663,7.663,0,0,1,.391.689,1.9,1.9,0,0,0,.251-0.265,1.767,1.767,0,0,0,.136-0.206,0.243,0.243,0,0,1,.18.026,0.21,0.21,0,0,1,.073.145q-0.037.316-.059,0.589c0,0.083,0,.173,0,0.27a2.324,2.324,0,0,0,.027.328,9.55,9.55,0,0,0,.341,1.411q0.255,0.823.665,1.924a0.767,0.767,0,0,0,.593.442,3.424,3.424,0,0,0,1.232,0,1.524,1.524,0,0,0,.813-0.533,8.672,8.672,0,0,0,1-1.389q0.461-.814.778-1.482a9.088,9.088,0,0,0,.472-1.167q0.277-.517.57-1t0.558-.931l0.122-.018a3.2,3.2,0,0,1,.989,1.027,2.139,2.139,0,0,0,2.088.886,9.789,9.789,0,0,0,1.407-.3,2.829,2.829,0,0,0,.893-0.41q0.443-.376.9-0.753t0.892-.773q-0.3-.495-0.582-0.931t-0.5-.818q-0.826.307-1.44,0.5a1.467,1.467,0,0,1-.944-0.152,2.192,2.192,0,0,1-.77-0.8q-0.035-.1-0.279-0.633T60.9,22.645a2.811,2.811,0,0,0-.5-0.839,0.622,0.622,0,0,0-.534-0.254,0.8,0.8,0,0,0-.255.1q-0.154.085-.345,0.2l-0.666.408a2.458,2.458,0,0,0-.645.975,15.281,15.281,0,0,0-.754,2.214q-0.453,1.579-.834,2.588a5.205,5.205,0,0,1-.716,1.41,5.081,5.081,0,0,1-.333.484,2.364,2.364,0,0,0-.247.368,0.2,0.2,0,0,1-.218-0.144,1.981,1.981,0,0,1-.126-0.51,13.215,13.215,0,0,1-.108-2.088q0.019-1.215.183-2.794,0.828-1.427,1.462-2.473t1.03-1.746q0.81-1.4,1.253-2.276a6.284,6.284,0,0,0,.517-1.215q0.341-.505.586-0.883a2.445,2.445,0,0,0,.326-0.68q0.377-.822.607-1.446T60.958,13q0.325-.752.547-1.365t0.374-.987q0.209-.984.411-1.728t0.395-1.27a2.4,2.4,0,0,0,.048-0.38,4.037,4.037,0,0,0-.01-0.5q0.008-.229.036-0.461a0.812,0.812,0,0,1,.15-0.395q0.039-.441.057-0.744a2.493,2.493,0,0,0-.009-0.486,2.617,2.617,0,0,0-.427-1.223A0.833,0.833,0,0,0,61.7,3.15a1.034,1.034,0,0,1-.278.082,1.972,1.972,0,0,0-.471-0.387,1.879,1.879,0,0,0-.772.393A7.328,7.328,0,0,0,59.1,4.275q-0.656.759-1.285,1.628T56.585,7.752q-0.329.587-.83,1.551t-1.156,2.3q-0.239.636-.428,1.109a7.716,7.716,0,0,0-.285.819,6.729,6.729,0,0,1-.191.681,3.044,3.044,0,0,1-.217.5,9.924,9.924,0,0,0-.592,1.62,11.076,11.076,0,0,0-.339,1.936q-0.131.807-.254,1.457t-0.246,1.083q-0.187,1.416-.279,2.486t-0.174,1.787a1.093,1.093,0,0,1-.149.54,4.093,4.093,0,0,1-.442.666,5.14,5.14,0,0,1-.329.442q-0.211.259-.6,0.71Q50.5,28.061,50.767,28.5ZM60.75,6.822a0.485,0.485,0,0,1,.085.226,2.734,2.734,0,0,1-.129.889q-0.165.646-.524,1.735-0.62,2-1.182,3.541A17,17,0,0,1,57.844,15.8q-0.585,1.1-1.055,1.926t-0.808,1.351a4.615,4.615,0,0,1-.577.872l-0.116-.087,0.173-.73q0.147-.622.355-1.751,0.24-1.05.48-2.246a1.217,1.217,0,0,1,.038-0.524,1.727,1.727,0,0,1,.284-0.539l0.868-1.857q0.442-.945.9-1.9a28.332,28.332,0,0,1,1.359-2.613,2.169,2.169,0,0,1,.776-0.932A0.225,0.225,0,0,1,60.75,6.822ZM95.565,20.791a7.4,7.4,0,0,1-.839,1.066,4.607,4.607,0,0,1-1.023.8,4.36,4.36,0,0,0-.331.5q-0.122.225-.2,0.382a1.955,1.955,0,0,0-.726.282,2.652,2.652,0,0,0-.727.7q-0.443.231-.757,0.422a3.025,3.025,0,0,0-.5.363q-1.124.393-1.769,0.59t-0.746.213a4.8,4.8,0,0,1-2.17-.17A6.407,6.407,0,0,1,83.716,24.8q-0.314-.161-0.657-0.381a1.051,1.051,0,0,1-.292-0.227,1.069,1.069,0,0,1-.2-0.282,5.5,5.5,0,0,0-.438-1.014,4.6,4.6,0,0,0-.524-0.752q-0.475-.552-0.7-0.84a1.178,1.178,0,0,1-.243-0.389l-0.067-1.876q-0.216-.486-0.488-1.069,0.081-1.007.1-1.745t0.026-1.237a15.314,15.314,0,0,1,.3-3.309,18.652,18.652,0,0,1,1.038-3.4,11.845,11.845,0,0,1,1.966-3.21,5.524,5.524,0,0,1,2.424-1.639l0.558-.227a6.424,6.424,0,0,0,.725-0.355q0.551,0.086,1.105.118t1.1,0.078a1.724,1.724,0,0,1,.917.529,1.818,1.818,0,0,1,.419.954,1.933,1.933,0,0,1-.141.943,4.4,4.4,0,0,1-.705,1.17,4.027,4.027,0,0,0-.275,1.087q-0.142.86-.279,2.331-0.135,1.346-.176,2.2a7.354,7.354,0,0,0,0,1.14q0.177,0.782.35,1.545a2.257,2.257,0,0,1-.009.436,2.217,2.217,0,0,0-.006.457,0.246,0.246,0,0,0,.217.207,1.946,1.946,0,0,0,.639-0.021q0.9-.38,1.676-0.7a1.345,1.345,0,0,0,.407-0.754,18.519,18.519,0,0,0,.464-1.923q0.245-1.155.389-1.933a4.811,4.811,0,0,0,.118-1.105q0.065-1.253.082-2.2t0.05-1.572a5.844,5.844,0,0,0-.051-0.77q-0.061-.561-0.2-1.494A9.393,9.393,0,0,0,92.51.595,1.745,1.745,0,0,0,91.132-.468L90.465-.495a2.642,2.642,0,0,0-1.1-.265,8.193,8.193,0,0,0-1.6.1A8.863,8.863,0,0,0,86,.012a6.072,6.072,0,0,0-1.534.846q-0.179.192-.311,0.356a1.653,1.653,0,0,1-.224.24l-0.64.446q-0.264.184-.454,0.294-0.6.751-1.031,1.239a6.667,6.667,0,0,1-.752.742q-0.309.439-.525,0.8t-0.369.593q-0.711.954-1.237,1.818A10.056,10.056,0,0,0,78.1,9.043q-0.328,1.022-.646,2.1t-0.64,2.145a4.733,4.733,0,0,0-.123.5,1.216,1.216,0,0,0-.016.386L76.8,14.622a9.127,9.127,0,0,1-.171.958q-0.1.43-.2,0.734,0.034,1.508.054,2.355t0.044,1.009a1.791,1.791,0,0,0,.16.453q0.136,0.291.366,0.734l-0.09.946a2.548,2.548,0,0,0,.225.692q0.222,0.527.637,1.378l0.8,1.665a4.613,4.613,0,0,0,.683.916,8.4,8.4,0,0,0,1.153,1.013,7.759,7.759,0,0,0,1.315.844,1.941,1.941,0,0,0,.98.251l0.6,0,0.279,0.208a3.43,3.43,0,0,1,.627.033q0.38,0.048.928,0.113,0.444,0.06.833,0.1a2.931,2.931,0,0,0,.693-0.008,10.6,10.6,0,0,0,1.882-.451,7.459,7.459,0,0,0,1.684-.816,13.445,13.445,0,0,0,1.311-.886q0.775-.58,1.779-1.369,1.111-.908,1.925-1.649t1.355-1.3q-0.015-.1-1.085-1.748h0Z"/>
</svg>
